{
  "accessors": [
    {
      "bufferView": 2,
      "componentType": 5126,
      "count": 550,
      "max": [
        0.0036999997682869434,
        0.0010000001639127731,
        0.003700000001117587
      ],
      "min": [
        -0.003700000001117587,
        -0.00409398227930069,
        -0.003700000001117587
      ],
      "type": "VEC3"
    },
    {
      "bufferView": 2,
      "byteOffset": 6600,
      "componentType": 5126,
      "count": 550,
      "max": [
        0.9982081055641174,
        0.9937484264373779,
        0.9982081055641174
      ],
      "min": [
        -0.9982081055641174,
        -0.8821874260902405,
        -0.998208224773407
      ],
      "type": "VEC3"
    },
    {
      "bufferView": 1,
      "componentType": 5126,
      "count": 550,
      "max": [
        1.0,
        1.0
      ],
      "min": [
        0.0,
        0.009999990463256836
      ],
      "type": "VEC2"
    },
    {
      "bufferView": 0,
      "componentType": 5125,
      "count": 1896,
      "type": "SCALAR"
    },
    {
      "bufferView": 2,
      "byteOffset": 13200,
      "componentType": 5126,
      "count": 4180,
      "max": [
        0.007492181845009327,
        1.1532445137740766e-10,
        0.07713553309440613
      ],
      "min": [
        -0.007492181845009327,
        -0.001000000280328095,
        -0.007492181845009327
      ],
      "type": "VEC3"
    },
    {
      "bufferView": 2,
      "byteOffset": 63360,
      "componentType": 5126,
      "count": 4180,
      "max": [
        1.0,
        1.0,
        1.0
      ],
      "min": [
        -1.0,
        -1.0,
        -1.0
      ],
      "type": "VEC3"
    },
    {
      "bufferView": 0,
      "byteOffset": 7584,
      "componentType": 5125,
      "count": 6444,
      "type": "SCALAR"
    },
    {
      "bufferView": 2,
      "byteOffset": 113520,
      "componentType": 5126,
      "count": 4128,
      "max": [
        0.006130489055067301,
        0.06528982520103455,
        0.1341247409582138
      ],
      "min": [
        -0.006130493711680174,
        0.06428982317447662,
        -0.006130490452051163
      ],
      "type": "VEC3"
    },
    {
      "bufferView": 2,
      "byteOffset": 163056,
      "componentType": 5126,
      "count": 4128,
      "max": [
        1.0,
        1.0,
        1.0
      ],
      "min": [
        -1.0,
        -1.0,
        -1.0
      ],
      "type": "VEC3"
    },
    {
      "bufferView": 1,
      "byteOffset": 4400,
      "componentType": 5126,
      "count": 4128,
      "max": [
        0.0,
        0.0
      ],
      "min": [
        0.0,
        0.0
      ],
      "type": "VEC2"
    },
    {
      "bufferView": 0,
      "byteOffset": 33360,
      "componentType": 5125,
      "count": 6372,
      "type": "SCALAR"
    },
    {
      "bufferView": 2,
      "byteOffset": 212592,
      "componentType": 5126,
      "count": 4676,
      "max": [
        0.004427239298820496,
        2.148061450935046e-10,
        0.12102934718132019
      ],
      "min": [
        -0.004427239298820496,
        -0.0010000003967434168,
        -0.049650393426418304
      ],
      "type": "VEC3"
    },
    {
      "bufferView": 2,
      "byteOffset": 268704,
      "componentType": 5126,
      "count": 4676,
      "max": [
        1.0,
        1.0,
        1.0
      ],
      "min": [
        -1.0,
        -1.0,
        -1.0
      ],
      "type": "VEC3"
    },
    {
      "bufferView": 0,
      "byteOffset": 58848,
      "componentType": 5125,
      "count": 7008,
      "type": "SCALAR"
    },
    {
      "bufferView": 2,
      "byteOffset": 324816,
      "componentType": 5126,
      "count": 128,
      "max": [
        0.16495785117149353,
        1.4242898416227945e-08,
        0.16495785117149353
      ],
      "min": [
        -0.16495788097381592,
        -1.4242897528049525e-08,
        -0.16495785117149353
      ],
      "type": "VEC3"
    },
    {
      "bufferView": 2,
      "byteOffset": 326352,
      "componentType": 5126,
      "count": 128,
      "max": [
        -8.524319383695911e-08,
        1.0,
        1.363073387494751e-08
      ],
      "min": [
        -8.524319383695911e-08,
        1.0,
        1.363073387494751e-08
      ],
      "type": "VEC3"
    },
    {
      "bufferView": 1,
      "byteOffset": 37424,
      "componentType": 5126,
      "count": 128,
      "max": [
        0.9932923316955566,
        0.9915914535522461
      ],
      "min": [
        0.013488292694091797,
        0.011787433177232742
      ],
      "type": "VEC2"
    },
    {
      "bufferView": 0,
      "byteOffset": 86880,
      "componentType": 5125,
      "count": 378,
      "type": "SCALAR"
    },
    {
      "bufferView": 2,
      "byteOffset": 327888,
      "componentType": 5126,
      "count": 2176,
      "max": [
        0.13899999856948853,
        0.004000000189989805,
        0.13899999856948853
      ],
      "min": [
        -0.13899999856948853,
        -0.012790674343705177,
        -0.13899999856948853
      ],
      "type": "VEC3"
    },
    {
      "bufferView": 2,
      "byteOffset": 354000,
      "componentType": 5126,
      "count": 2176,
      "max": [
        0.924716591835022,
        0.9997433423995972,
        0.9247214198112488
      ],
      "min": [
        -0.9247168898582458,
        -0.7016249895095825,
        -0.9247194528579712
      ],
      "type": "VEC3"
    },
    {
      "bufferView": 1,
      "byteOffset": 38448,
      "componentType": 5126,
      "count": 2176,
      "max": [
        0.0,
        0.0
      ],
      "min": [
        0.0,
        0.0
      ],
      "type": "VEC2"
    },
    {
      "bufferView": 0,
      "byteOffset": 88392,
      "componentType": 5125,
      "count": 12666,
      "type": "SCALAR"
    },
    {
      "bufferView": 2,
      "byteOffset": 380112,
      "componentType": 5126,
      "count": 1408,
      "max": [
        0.13899999856948853,
        -0.006500000134110451,
        0.13899999856948853
      ],
      "min": [
        -0.13899999856948853,
        -0.027499999850988388,
        -0.13899999856948853
      ],
      "type": "VEC3"
    },
    {
      "bufferView": 2,
      "byteOffset": 397008,
      "componentType": 5126,
      "count": 1408,
      "max": [
        0.924716055393219,
        -0.3806391954421997,
        0.9247182607650757
      ],
      "min": [
        -0.9247152209281921,
        -1.0,
        -0.9247153401374817
      ],
      "type": "VEC3"
    },
    {
      "bufferView": 1,
      "byteOffset": 55856,
      "componentType": 5126,
      "count": 1408,
      "max": [
        0.0,
        0.0
      ],
      "min": [
        0.0,
        0.0
      ],
      "type": "VEC2"
    },
    {
      "bufferView": 0,
      "byteOffset": 139056,
      "componentType": 5125,
      "count": 8058,
      "type": "SCALAR"
    },
    {
      "bufferView": 2,
      "byteOffset": 413904,
      "componentType": 5126,
      "count": 768,
      "max": [
        0.11699336767196655,
        0.0020364532247185707,
        0.11699336767196655
      ],
      "min": [
        -0.11699336767196655,
        3.6456622183322906e-05,
        -0.11699336767196655
      ],
      "type": "VEC3"
    },
    {
      "bufferView": 2,
      "byteOffset": 423120,
      "componentType": 5126,
      "count": 768,
      "max": [
        0.99969881772995,
        1.0,
        0.9996988773345947
      ],
      "min": [
        -0.99969881772995,
        -1.0,
        -0.9996988773345947
      ],
      "type": "VEC3"
    },
    {
      "bufferView": 1,
      "byteOffset": 67120,
      "componentType": 5126,
      "count": 768,
      "max": [
        0.0,
        0.0
      ],
      "min": [
        0.0,
        0.0
      ],
      "type": "VEC2"
    },
    {
      "bufferView": 0,
      "byteOffset": 171288,
      "componentType": 5125,
      "count": 1524,
      "type": "SCALAR"
    }
  ],
  "asset": {
    "extras": {
      "author": "Alex (https://sketchfab.com/adef)",
      "license": "CC-BY-4.0 (http://creativecommons.org/licenses/by/4.0/)",
      "source": "https://sketchfab.com/3d-models/clock-e44ef161cef546c7a0785f94a968d074",
      "title": "Clock"
    },
    "generator": "Sketchfab-14.60.0",
    "version": "2.0"
  },
  "bufferViews": [
    {
      "buffer": 0,
      "byteLength": 177384,
      "name": "floatBufferViews",
      "target": 34963
    },
    {
      "buffer": 0,
      "byteLength": 73264,
      "byteOffset": 177384,
      "byteStride": 8,
      "name": "floatBufferViews",
      "target": 34962
    },
    {
      "buffer": 0,
      "byteLength": 432336,
      "byteOffset": 250648,
      "byteStride": 12,
      "name": "floatBufferViews",
      "target": 34962
    }
  ],
  "buffers": [
    {
      "byteLength": 682984,
      "uri": "scene.bin"
    }
  ],
  "images": [
    {
      "uri": "textures/Clock_Face_baseColor.png"
    }
  ],
  "materials": [
    {
      "doubleSided": true,
      "name": "Clock_Face",
      "pbrMetallicRoughness": {
        "baseColorTexture": {
          "index": 0
        },
        "metallicFactor": 0.0,
        "roughnessFactor": 0.5
      }
    },
    {
      "doubleSided": true,
      "name": "Hands",
      "pbrMetallicRoughness": {
        "baseColorFactor": [
          0.0631692,
          0.0631692,
          0.0631692,
          1.0
        ],
        "roughnessFactor": 0.5
      }
    },
    {
      "doubleSided": true,
      "name": "Clock",
      "pbrMetallicRoughness": {
        "baseColorFactor": [
          0.003288,
          0.003288,
          0.003288,
          1.0
        ],
        "metallicFactor": 0.0,
        "roughnessFactor": 0.2
      }
    },
    {
      "doubleSided": true,
      "name": "Clock_Matte",
      "pbrMetallicRoughness": {
        "baseColorFactor": [
          0.00866851,
          0.00866851,
          0.00866851,
          1.0
        ],
        "metallicFactor": 0.0,
        "roughnessFactor": 0.832872
      }
    },
    {
      "alphaMode": "BLEND",
      "doubleSided": true,
      "name": "Efficient_Glass",
      "pbrMetallicRoughness": {
        "baseColorFactor": [
          1.0,
          1.0,
          1.0,
          0.17472940554222785
        ]
      }
    }
  ],
  "meshes": [
    {
      "name": "Object_0",
      "primitives": [
        {
          "attributes": {
            "NORMAL": 1,
            "POSITION": 0,
            "TEXCOORD_0": 2
          },
          "indices": 3,
          "material": 0,
          "mode": 4
        }
      ]
    },
    {
      "name": "Object_1",
      "primitives": [
        {
          "attributes": {
            "NORMAL": 5,
            "POSITION": 4
          },
          "indices": 6,
          "material": 1,
          "mode": 4
        }
      ]
    },
    {
      "name": "Object_2",
      "primitives": [
        {
          "attributes": {
            "NORMAL": 8,
            "POSITION": 7,
            "TEXCOORD_0": 9
          },
          "indices": 10,
          "material": 1,
          "mode": 4
        }
      ]
    },
    {
      "name": "Object_3",
      "primitives": [
        {
          "attributes": {
            "NORMAL": 12,
            "POSITION": 11
          },
          "indices": 13,
          "material": 1,
          "mode": 4
        }
      ]
    },
    {
      "name": "Object_4",
      "primitives": [
        {
          "attributes": {
            "NORMAL": 15,
            "POSITION": 14,
            "TEXCOORD_0": 16
          },
          "indices": 17,
          "material": 0,
          "mode": 4
        }
      ]
    },
    {
      "name": "Object_5",
      "primitives": [
        {
          "attributes": {
            "NORMAL": 19,
            "POSITION": 18,
            "TEXCOORD_0": 20
          },
          "indices": 21,
          "material": 2,
          "mode": 4
        }
      ]
    },
    {
      "name": "Object_6",
      "primitives": [
        {
          "attributes": {
            "NORMAL": 23,
            "POSITION": 22,
            "TEXCOORD_0": 24
          },
          "indices": 25,
          "material": 3,
          "mode": 4
        }
      ]
    },
    {
      "name": "Object_7",
      "primitives": [
        {
          "attributes": {
            "NORMAL": 27,
            "POSITION": 26,
            "TEXCOORD_0": 28
          },
          "indices": 29,
          "material": 4,
          "mode": 4
        }
      ]
    }
  ],
  "nodes": [
    {
      "children": [
        1
      ],
      "matrix": [
        1.0,
        0.0,
        0.0,
        0.0,
        0.0,
        2.220446049250313e-16,
        -1.0,
        0.0,
        0.0,
        1.0,
        2.220446049250313e-16,
        0.0,
        0.0,
        0.0,
        0.0,
        1.0
      ],
      "name": "Sketchfab_model"
    },
    {
      "children": [
        2
      ],
      "name": "root"
    },
    {
      "children": [
        3,
        5,
        7,
        9,
        11,
        13,
        16
      ],
      "matrix": [
        1.0,
        0.0,
        0.0,
        0.0,
        0.0,
        2.220446049250313e-16,
        1.0,
        0.0,
        0.0,
        -1.0,
        2.220446049250313e-16,
        0.0,
        0.0,
        0.0,
        0.0,
        1.0
      ],
      "name": "GLTF_SceneRootNode"
    },
    {
      "children": [
        4
      ],
      "matrix": [
        0.0,
        -1.0,
        -0.0,
        0.0,
        1.0,
        0.0,
        0.0,
        0.0,
        0.0,
        -0.0,
        1.0,
        0.0,
        0.010402508080005646,
        0.0,
        0.0,
        1.0
      ],
      "name": "Center_5"
    },
    {
      "mesh": 0,
      "name": "Object_4"
    },
    {
      "children": [
        6
      ],
      "matrix": [
        7.739897889667648e-17,
        -0.6966798135452379,
        0.025546158419026917,
        0.0,
        0.697148025035858,
        7.739897889667648e-17,
        0.0,
        0.0,
        0.0,
        0.025546158419026917,
        0.6966798135452379,
        0.0,
        0.008780524134635925,
        0.0,
        0.0,
        1.0
      ],
      "name": "Hour Hand_6"
    },
    {
      "mesh": 1,
      "name": "Object_6"
    },
    {
      "children": [
        8
      ],
      "matrix": [
        2.1514553898910147e-07,
        0.5259213202151886,
        0.49908021790947077,
        0.0,
        0.6971480250356347,
        2.0687069560052405e-07,
        -5.185258554864894e-07,
        0.0,
        -5.392669287188452e-07,
        0.49908021790947077,
        -0.5259213202149561,
        0.0,
        -0.03596927970647812,
        0.0,
        0.0,
        1.0
      ],
      "name": "Minute Hand_7"
    },
    {
      "mesh": 2,
      "name": "Object_8"
    },
    {
      "children": [
        10
      ],
      "matrix": [
        -5.372629413191712e-08,
        -0.4682886648200994,
        0.5164503965589397,
        0.0,
        0.6971480250358557,
        -5.3726298725399185e-08,
        2.3808217122275784e-08,
        0.0,
        2.3808215086724834e-08,
        0.5164503965589397,
        0.46828866482010184,
        0.0,
        0.01030636578798294,
        0.0,
        0.0,
        1.0
      ],
      "name": "Second Hand_8"
    },
    {
      "mesh": 3,
      "name": "Object_10"
    },
    {
      "children": [
        12
      ],
      "matrix": [
        0.0,
        -0.6971477270126343,
        -0.0,
        0.0,
        1.0,
        0.0,
        0.0,
        0.0,
        0.0,
        -0.0,
        0.697147786617279,
        0.0,
        0.006625942885875702,
        0.0,
        0.0,
        1.0
      ],
      "name": "Face_9"
    },
    {
      "mesh": 4,
      "name": "Object_12"
    },
    {
      "children": [
        14,
        15
      ],
      "matrix": [
        0.0,
        -1.0,
        -0.0,
        0.0,
        1.0,
        0.0,
        0.0,
        0.0,
        0.0,
        -0.0,
        1.0,
        0.0,
        0.018835915252566338,
        0.0,
        0.0,
        1.0
      ],
      "name": "Cover_10"
    },
    {
      "mesh": 5,
      "name": "Object_14"
    },
    {
      "mesh": 6,
      "name": "Object_15"
    },
    {
      "children": [
        17
      ],
      "matrix": [
        0.0,
        -0.9990000128746033,
        -0.0,
        0.0,
        1.0,
        0.0,
        0.0,
        0.0,
        0.0,
        -0.0,
        0.9990000128746033,
        0.0,
        0.018835917115211487,
        0.0,
        0.0,
        1.0
      ],
      "name": "Glass_11"
    },
    {
      "mesh": 7,
      "name": "Object_17"
    }
  ],
  "samplers": [
    {
      "magFilter": 9729,
      "minFilter": 9987,
      "wrapS": 10497,
      "wrapT": 10497
    }
  ],
  "scene": 0,
  "scenes": [
    {
      "name": "Sketchfab_Scene",
      "nodes": [
        0
      ]
    }
  ],
  "textures": [
    {
      "sampler": 0,
      "source": 0
    }
  ]
}
