{
  "accessors": [
    {
      "bufferView": 2,
      "componentType": 5126,
      "count": 594,
      "max": [
        0.31346800923347473,
        0.21738600730895996,
        0.008346999995410442
      ],
      "min": [
        -0.31346800923347473,
        -0.10453800112009048,
        -0.016177000477910042
      ],
      "type": "VEC3"
    },
    {
      "bufferView": 2,
      "byteOffset": 7128,
      "componentType": 5126,
      "count": 594,
      "max": [
        1.0,
        1.0,
        1.0
      ],
      "min": [
        -1.0,
        -1.0,
        -1.0
      ],
      "type": "VEC3"
    },
    {
      "bufferView": 3,
      "componentType": 5126,
      "count": 594,
      "max": [
        0.9996863007545471,
        0.5792340040206909,
        1.0,
        1.0
      ],
      "min": [
        -0.9999951720237732,
        -1.0,
        -0.9999896287918091,
        1.0
      ],
      "type": "VEC4"
    },
    {
      "bufferView": 1,
      "componentType": 5126,
      "count": 594,
      "max": [
        0.9898179769515991,
        0.7902259826660156
      ],
      "min": [
        0.010181999765336514,
        0.010181999765336514
      ],
      "type": "VEC2"
    },
    {
      "bufferView": 0,
      "componentType": 5125,
      "count": 813,
      "type": "SCALAR"
    },
    {
      "bufferView": 2,
      "byteOffset": 14256,
      "componentType": 5126,
      "count": 525,
      "max": [
        0.31882598996162415,
        0.030361000448465347,
        -0.004189999774098396
      ],
      "min": [
        -0.31882598996162415,
        -0.04617299884557724,
        -0.0175199992954731
      ],
      "type": "VEC3"
    },
    {
      "bufferView": 2,
      "byteOffset": 20556,
      "componentType": 5126,
      "count": 525,
      "max": [
        1.0,
        0.9997077584266663,
        0.9997082352638245
      ],
      "min": [
        -1.0,
        -0.9997077584266663,
        -0.9997081160545349
      ],
      "type": "VEC3"
    },
    {
      "bufferView": 3,
      "byteOffset": 9504,
      "componentType": 5126,
      "count": 525,
      "max": [
        1.0,
        0.971961259841919,
        0.23566396534442902,
        1.0
      ],
      "min": [
        -1.0,
        -0.9720463156700134,
        -0.23566396534442902,
        1.0
      ],
      "type": "VEC4"
    },
    {
      "bufferView": 1,
      "byteOffset": 4752,
      "componentType": 5126,
      "count": 525,
      "max": [
        0.7642340064048767,
        0.7810059785842896
      ],
      "min": [
        0.010181999765336514,
        0.7306320071220398
      ],
      "type": "VEC2"
    },
    {
      "bufferView": 0,
      "byteOffset": 3252,
      "componentType": 5125,
      "count": 1008,
      "type": "SCALAR"
    },
    {
      "bufferView": 2,
      "byteOffset": 26856,
      "componentType": 5126,
      "count": 3895,
      "max": [
        -1.0632139444351196,
        0.08692300319671631,
        0.9951819777488708
      ],
      "min": [
        -3.0822949409484863,
        -1.8454970121383667,
        0.03712499886751175
      ],
      "type": "VEC3"
    },
    {
      "bufferView": 2,
      "byteOffset": 73596,
      "componentType": 5126,
      "count": 3895,
      "max": [
        1.0,
        1.0,
        1.0
      ],
      "min": [
        -1.0,
        -1.0,
        -1.0
      ],
      "type": "VEC3"
    },
    {
      "bufferView": 3,
      "byteOffset": 17904,
      "componentType": 5126,
      "count": 3895,
      "max": [
        1.0,
        1.0,
        1.0,
        1.0
      ],
      "min": [
        -1.0,
        -1.0,
        -1.0,
        -1.0
      ],
      "type": "VEC4"
    },
    {
      "bufferView": 1,
      "byteOffset": 8952,
      "componentType": 5126,
      "count": 3895,
      "max": [
        0.9846410155296326,
        0.9863640069961548
      ],
      "min": [
        0.013492000289261341,
        0.013492000289261341
      ],
      "type": "VEC2"
    },
    {
      "bufferView": 0,
      "byteOffset": 7284,
      "componentType": 5125,
      "count": 9795,
      "type": "SCALAR"
    },
    {
      "bufferView": 2,
      "byteOffset": 120336,
      "componentType": 5126,
      "count": 1150,
      "max": [
        -1.9623260498046875,
        -0.2039240002632141,
        0.9268320202827454
      ],
      "min": [
        -2.7846789360046387,
        -0.9947140216827393,
        0.048478998243808746
      ],
      "type": "VEC3"
    },
    {
      "bufferView": 2,
      "byteOffset": 134136,
      "componentType": 5126,
      "count": 1150,
      "max": [
        0.9999203681945801,
        0.9999200105667114,
        1.0
      ],
      "min": [
        -0.9999193549156189,
        -0.9999200105667114,
        -0.40376991033554077
      ],
      "type": "VEC3"
    },
    {
      "bufferView": 3,
      "byteOffset": 80224,
      "componentType": 5126,
      "count": 1150,
      "max": [
        0.9999197721481323,
        0.9999198913574219,
        0.8771472573280334,
        1.0
      ],
      "min": [
        -0.9998918175697327,
        -0.9999198317527771,
        -0.9830942153930664,
        1.0
      ],
      "type": "VEC4"
    },
    {
      "bufferView": 1,
      "byteOffset": 40112,
      "componentType": 5126,
      "count": 1150,
      "max": [
        0.9865080118179321,
        0.9748550057411194
      ],
      "min": [
        0.13245999813079834,
        0.053070999681949615
      ],
      "type": "VEC2"
    },
    {
      "bufferView": 0,
      "byteOffset": 46464,
      "componentType": 5125,
      "count": 2106,
      "type": "SCALAR"
    }
  ],
  "asset": {
    "extras": {
      "author": "Leon_dp (https://sketchfab.com/leondp)",
      "license": "CC-BY-4.0 (http://creativecommons.org/licenses/by/4.0/)",
      "source": "https://sketchfab.com/3d-models/low-poly-computer-table-1-47799f39b298461da3e55c9b83c8b3c2",
      "title": "Low poly computer table (1)"
    },
    "generator": "Sketchfab-12.68.0",
    "version": "2.0"
  },
  "bufferViews": [
    {
      "buffer": 0,
      "byteLength": 54888,
      "name": "floatBufferViews",
      "target": 34963
    },
    {
      "buffer": 0,
      "byteLength": 49312,
      "byteOffset": 54888,
      "byteStride": 8,
      "name": "floatBufferViews",
      "target": 34962
    },
    {
      "buffer": 0,
      "byteLength": 147936,
      "byteOffset": 104200,
      "byteStride": 12,
      "name": "floatBufferViews",
      "target": 34962
    },
    {
      "buffer": 0,
      "byteLength": 98624,
      "byteOffset": 252136,
      "byteStride": 16,
      "name": "floatBufferViews",
      "target": 34962
    }
  ],
  "buffers": [
    {
      "byteLength": 350760,
      "uri": "scene.bin"
    }
  ],
  "extensionsUsed": [
    "KHR_materials_clearcoat"
  ],
  "images": [
    {
      "uri": "textures/Derevo_baseColor.jpeg"
    },
    {
      "uri": "textures/Derevo_metallicRoughness.png"
    },
    {
      "uri": "textures/Derevo_normal.png"
    },
    {
      "uri": "textures/Metal_baseColor.jpeg"
    },
    {
      "uri": "textures/Metal_metallicRoughness.png"
    },
    {
      "uri": "textures/Metal_normal.png"
    }
  ],
  "materials": [
    {
      "doubleSided": true,
      "extensions": {
        "KHR_materials_clearcoat": {
          "clearcoatFactor": 0.03,
          "clearcoatRoughnessFactor": 0.07467212666216734
        }
      },
      "name": "Derevo",
      "normalTexture": {
        "index": 2,
        "scale": 0.333
      },
      "occlusionTexture": {
        "index": 1
      },
      "pbrMetallicRoughness": {
        "baseColorTexture": {
          "index": 0
        },
        "metallicRoughnessTexture": {
          "index": 1
        },
        "roughnessFactor": 0.555
      }
    },
    {
      "doubleSided": true,
      "name": "Metal",
      "normalTexture": {
        "index": 5
      },
      "occlusionTexture": {
        "index": 4
      },
      "pbrMetallicRoughness": {
        "baseColorTexture": {
          "index": 3
        },
        "metallicRoughnessTexture": {
          "index": 4
        },
        "roughnessFactor": 0.777
      }
    }
  ],
  "meshes": [
    {
      "name": "defaultMaterial",
      "primitives": [
        {
          "attributes": {
            "NORMAL": 1,
            "POSITION": 0,
            "TANGENT": 2,
            "TEXCOORD_0": 3
          },
          "indices": 4,
          "material": 0,
          "mode": 4
        }
      ]
    },
    {
      "name": "defaultMaterial",
      "primitives": [
        {
          "attributes": {
            "NORMAL": 6,
            "POSITION": 5,
            "TANGENT": 7,
            "TEXCOORD_0": 8
          },
          "indices": 9,
          "material": 1,
          "mode": 4
        }
      ]
    },
    {
      "name": "defaultMaterial",
      "primitives": [
        {
          "attributes": {
            "NORMAL": 11,
            "POSITION": 10,
            "TANGENT": 12,
            "TEXCOORD_0": 13
          },
          "indices": 14,
          "material": 0,
          "mode": 4
        }
      ]
    },
    {
      "name": "defaultMaterial",
      "primitives": [
        {
          "attributes": {
            "NORMAL": 16,
            "POSITION": 15,
            "TANGENT": 17,
            "TEXCOORD_0": 18
          },
          "indices": 19,
          "material": 1,
          "mode": 4
        }
      ]
    }
  ],
  "nodes": [
    {
      "children": [
        1
      ],
      "matrix": [
        1.0,
        0.0,
        0.0,
        0.0,
        0.0,
        2.220446049250313e-16,
        -1.0,
        0.0,
        0.0,
        1.0,
        2.220446049250313e-16,
        0.0,
        0.0,
        0.0,
        0.0,
        1.0
      ],
      "name": "Sketchfab_model"
    },
    {
      "children": [
        2,
        5
      ],
      "matrix": [
        1.0,
        0.0,
        0.0,
        0.0,
        0.0,
        -4.371139006309477e-08,
        0.999999999999999,
        0.0,
        0.0,
        -0.999999999999999,
        -4.371139006309477e-08,
        0.0,
        0.0,
        0.0,
        0.0,
        1.0
      ],
      "name": "Collada visual scene group"
    },
    {
      "children": [
        3,
        4
      ],
      "matrix": [
        78.814331,
        4e-06,
        -77.605843,
        0.0,
        -77.605843,
        1.8e-05,
        -78.814331,
        0.0,
        1e-05,
        110.60907,
        1.5e-05,
        0.0,
        -194.806229,
        69.866928,
        118.131325,
        1.0
      ],
      "name": "Platforma01"
    },
    {
      "mesh": 0,
      "name": "defaultMaterial"
    },
    {
      "mesh": 1,
      "name": "defaultMaterial"
    },
    {
      "children": [
        6,
        7
      ],
      "matrix": [
        100.0,
        0.0,
        0.0,
        0.0,
        0.0,
        -1.6e-05,
        -100.0,
        0.0,
        0.0,
        100.0,
        -1.6e-05,
        0.0,
        0.0,
        0.0,
        0.0,
        1.0
      ],
      "name": "Stol"
    },
    {
      "mesh": 2,
      "name": "defaultMaterial"
    },
    {
      "mesh": 3,
      "name": "defaultMaterial"
    }
  ],
  "samplers": [
    {
      "magFilter": 9729,
      "minFilter": 9987,
      "wrapS": 10497,
      "wrapT": 10497
    }
  ],
  "scene": 0,
  "scenes": [
    {
      "name": "Sketchfab_Scene",
      "nodes": [
        0
      ]
    }
  ],
  "textures": [
    {
      "sampler": 0,
      "source": 0
    },
    {
      "sampler": 0,
      "source": 1
    },
    {
      "sampler": 0,
      "source": 2
    },
    {
      "sampler": 0,
      "source": 3
    },
    {
      "sampler": 0,
      "source": 4
    },
    {
      "sampler": 0,
      "source": 5
    }
  ]
}
